<?xml version="1.0" encoding="UTF-8" standalone="no"?>
<!DOCTYPE svg PUBLIC "-//W3C//DTD SVG 1.1//EN" "http://www.w3.org/Graphics/SVG/1.1/DTD/svg11.dtd">
<svg width="100%" height="100%" viewBox="0 0 3000 3000" version="1.1" xmlns="http://www.w3.org/2000/svg" xmlns:xlink="http://www.w3.org/1999/xlink" xml:space="preserve" xmlns:serif="http://www.serif.com/" style="fill-rule:evenodd;clip-rule:evenodd;stroke-linejoin:round;stroke-miterlimit:2;">
    <g transform="matrix(1.21768,0,0,1.21768,-318.585,-277.978)">
        <path d="M2681.98,623.858C2681.98,429.46 2524.15,271.634 2329.75,271.634L657.206,271.634C462.808,271.634 304.981,429.46 304.981,623.858L304.981,2296.41C304.981,2490.8 462.808,2648.63 657.206,2648.63L2329.75,2648.63C2524.15,2648.63 2681.98,2490.8 2681.98,2296.41L2681.98,623.858Z" style="fill:url(#_Linear1);"/>
    </g>
    <g transform="matrix(0.824683,0.824683,-1.74951,1.74951,3985.06,-2566.19)">
        <path d="M1259.38,1398.7C1259.38,1362.35 1196.78,1332.85 1119.67,1332.85C1042.57,1332.85 979.969,1362.35 979.969,1398.7L979.969,1976.49C979.969,2012.83 1042.57,2042.34 1119.67,2042.34C1196.78,2042.34 1259.38,2012.83 1259.38,1976.49L1259.38,1398.7Z" style="fill:white;"/>
    </g>
    <g transform="matrix(1.21768,0,0,1.21768,-326.525,-326.525)">
        <path d="M2085.35,582.733L854.575,582.733C704.542,582.733 582.733,704.542 582.733,854.575L582.733,2145.43C582.733,2295.46 704.542,2417.27 854.575,2417.27L2145.43,2417.27C2295.46,2417.27 2417.27,2295.46 2417.27,2145.43L2417.27,1311.1L2225.93,1502.44L2225.93,2167.85C2225.93,2199.9 2199.9,2225.93 2167.85,2225.93L832.149,2225.93C800.097,2225.93 774.075,2199.9 774.075,2167.85L774.075,832.149C774.075,800.097 800.097,774.075 832.149,774.075L1894.01,774.075L2085.35,582.733Z" style="fill:white;"/>
    </g>
    <g transform="matrix(0.824683,-0.824683,0.835997,0.835997,-1066.68,1145.55)">
        <path d="M1259.38,1470.66C1259.38,1394.6 1196.78,1332.85 1119.67,1332.85C1042.57,1332.85 979.969,1394.6 979.969,1470.66L979.969,1904.53C979.969,1980.59 1042.57,2042.34 1119.67,2042.34C1196.78,2042.34 1259.38,1980.59 1259.38,1904.53L1259.38,1470.66Z" style="fill:white;"/>
    </g>
    <defs>
        <linearGradient id="_Linear1" x1="0" y1="0" x2="1" y2="0" gradientUnits="userSpaceOnUse" gradientTransform="matrix(1.46491e-13,-2392.39,2392.39,1.46491e-13,1434.88,2654.02)"><stop offset="0" style="stop-color:rgb(40,91,159);stop-opacity:1"/><stop offset="1" style="stop-color:rgb(112,159,219);stop-opacity:1"/></linearGradient>
    </defs>
</svg>
